<svg xmlns="http://www.w3.org/2000/svg" width="995" height="1054" viewBox="0 0 995 1054">
<g>
<path d="M 330.50 652.59 C322.41,654.43 282.77,655.57 279.50,654.06 C277.85,653.30 278.20,653.11 281.50,652.94 L 285.50 652.74 L 282.00 652.00 C279.01,651.37 278.88,651.24 281.14,651.13 C283.85,651.00 284.90,649.51 285.51,644.96 C285.70,643.56 287.49,637.35 289.49,631.16 C291.50,624.96 293.30,619.06 293.49,618.04 C294.00,615.41 297.12,605.82 298.15,603.75 C298.74,602.56 298.62,601.98 297.76,601.93 C297.07,601.89 297.40,601.47 298.50,601.00 C300.25,600.25 300.12,600.11 297.50,599.91 C295.85,599.79 302.15,599.35 311.50,598.95 C327.46,598.26 346.59,595.76 348.23,594.15 C349.42,592.99 340.76,580.98 334.38,574.92 C331.15,571.86 326.59,568.09 324.25,566.54 C319.33,563.29 319.01,562.29 322.57,561.39 C324.37,560.94 324.83,560.43 324.10,559.70 C323.36,558.96 323.40,558.22 324.21,557.25 C325.10,556.18 325.07,555.66 324.08,555.05 C323.15,554.48 323.11,554.05 323.91,553.56 C324.53,553.17 324.71,552.34 324.32,551.70 C323.92,551.07 323.60,549.62 323.60,548.50 C323.60,547.38 323.92,545.93 324.32,545.30 C324.71,544.66 324.55,543.84 323.97,543.48 C323.22,543.02 323.23,542.43 324.00,541.50 C324.80,540.54 324.80,539.99 324.00,539.50 C323.20,539.01 323.20,538.46 324.00,537.50 C324.80,536.54 324.80,535.99 324.00,535.50 C323.20,535.01 323.20,534.46 324.00,533.50 C324.80,532.54 324.80,531.99 324.00,531.50 C323.20,531.01 323.20,530.46 324.00,529.50 C324.80,528.54 324.80,527.99 324.00,527.50 C323.23,527.02 323.28,526.36 324.20,525.25 C325.26,523.96 325.26,523.59 324.21,523.24 C323.15,522.88 323.15,522.51 324.21,521.21 C325.19,520.00 325.20,519.80 324.25,520.37 C323.56,520.78 323.00,520.67 323.00,520.12 C323.00,519.57 323.47,518.83 324.05,518.47 C324.77,518.03 324.73,517.38 323.93,516.41 C323.08,515.40 323.07,515.00 323.88,515.00 C324.49,515.00 325.00,514.52 325.00,513.94 C325.00,513.36 324.51,513.19 323.90,513.56 C323.11,514.05 323.10,513.69 323.87,512.25 C324.45,511.16 324.70,510.03 324.41,509.75 C324.13,509.46 323.88,506.48 323.87,503.12 C323.85,499.77 323.42,496.76 322.92,496.45 C322.41,496.14 322.04,495.12 322.08,494.19 C322.12,493.24 322.37,493.03 322.64,493.69 C322.91,494.35 323.71,494.66 324.42,494.39 C326.16,493.73 346.52,501.26 356.50,506.26 C379.16,517.61 393.12,531.95 399.70,550.62 C402.30,557.98 402.48,559.56 402.48,574.50 C402.48,589.47 402.30,591.02 399.68,598.50 C390.06,625.90 366.31,644.47 330.50,652.59 ZM 544.00 631.75 L 544.00 634.00 L 521.25 633.78 C484.21,633.42 470.00,632.99 470.00,632.22 C470.00,631.83 472.59,631.58 475.75,631.67 C480.63,631.82 480.97,631.72 478.00,631.05 C476.07,630.62 475.40,630.20 476.51,630.13 C478.51,630.00 478.53,629.50 478.36,568.75 C478.22,515.99 477.98,506.95 476.64,503.50 C475.79,501.30 475.07,499.89 475.04,500.37 C475.02,500.85 474.35,500.71 473.56,500.05 C472.77,499.39 472.39,498.10 472.72,497.18 C473.05,496.25 472.95,495.84 472.49,496.25 C471.26,497.37 468.00,494.01 468.00,491.63 C468.00,489.95 469.05,490.58 473.63,495.03 C478.65,499.90 480.46,502.97 490.19,523.00 C496.20,535.38 501.54,546.17 502.07,547.00 C502.59,547.83 503.92,550.44 505.00,552.81 C506.09,555.18 507.67,557.81 508.50,558.64 C509.34,559.48 509.76,560.57 509.45,561.08 C509.14,561.59 509.39,562.00 510.00,562.00 C510.61,562.00 510.84,562.45 510.50,563.00 C510.16,563.55 510.50,564.00 511.26,564.00 C512.01,564.00 513.41,565.46 514.37,567.25 C518.41,574.82 519.14,576.00 519.80,575.94 C520.19,575.91 522.08,573.90 524.00,571.47 C529.83,564.14 530.70,563.05 534.00,559.00 C535.75,556.85 538.00,554.15 539.00,553.00 C540.00,551.85 542.25,549.15 544.00,547.00 C549.70,540.00 551.20,538.50 552.18,538.77 C552.71,538.93 552.88,538.61 552.55,538.08 C552.22,537.54 553.95,535.10 556.40,532.65 C558.85,530.20 560.55,527.89 560.18,527.51 C559.81,527.14 559.95,526.98 560.50,527.15 C561.63,527.51 566.00,524.00 566.00,522.73 C566.00,522.28 567.01,520.83 568.25,519.50 C571.84,515.67 573.12,514.00 572.49,514.00 C572.17,514.00 572.94,512.92 574.20,511.59 C575.47,510.27 577.17,508.33 578.00,507.28 C578.83,506.23 580.61,504.61 581.97,503.68 C583.33,502.76 584.10,502.00 583.68,502.00 C582.89,502.00 584.05,500.42 587.50,496.80 C588.60,495.65 588.94,495.02 588.26,495.40 C587.43,495.87 587.22,495.59 587.62,494.56 C587.94,493.71 588.61,493.26 589.10,493.56 C589.60,493.87 590.00,493.60 590.00,492.97 C590.00,492.33 590.90,490.67 592.00,489.27 C593.10,487.87 594.00,487.27 594.00,487.92 C594.00,488.58 594.39,488.88 594.86,488.59 C596.15,487.79 595.66,491.15 594.06,494.00 C593.29,495.38 592.68,496.73 592.70,497.00 C592.75,497.59 592.26,499.32 591.34,501.75 C590.98,502.71 590.77,503.88 590.88,504.36 C590.98,504.83 590.55,505.84 589.91,506.61 C589.28,507.37 589.09,508.00 589.50,508.00 C589.91,508.00 589.71,508.65 589.05,509.44 C588.39,510.24 587.25,513.05 586.53,515.69 C585.80,518.34 575.93,545.03 564.60,575.00 C553.27,604.97 544.00,630.51 544.00,631.75 ZM 702.00 633.22 C702.00,633.65 692.44,633.91 680.75,633.79 C656.95,633.56 629.91,632.58 634.50,632.11 C637.49,631.80 637.49,631.80 635.00,631.00 C632.92,630.33 632.83,630.18 634.50,630.08 C635.67,630.02 636.06,629.67 635.43,629.23 C634.16,628.36 634.05,540.22 635.32,538.25 C635.76,537.56 635.75,537.00 635.31,537.00 C634.86,537.00 634.52,525.19 634.53,510.75 C634.56,493.68 634.15,482.76 633.37,479.52 C632.71,476.77 632.38,474.19 632.64,473.77 C632.91,473.34 632.69,473.00 632.17,473.00 C630.69,473.00 629.81,469.79 630.97,468.63 C631.69,467.91 632.45,468.03 633.44,469.04 C634.23,469.84 641.26,486.70 649.07,506.50 C656.87,526.30 663.57,542.85 663.95,543.27 C664.33,543.69 667.16,536.94 670.25,528.27 C690.39,471.72 698.61,449.65 701.83,443.50 L 705.50 436.50 L 712.25 436.20 C715.96,436.04 719.00,436.04 719.00,436.20 C718.99,436.37 717.63,440.10 715.96,444.50 C714.28,448.90 711.11,457.45 708.91,463.50 C706.71,469.55 704.47,475.53 703.95,476.80 C703.43,478.06 703.00,480.14 703.00,481.41 C703.00,484.25 706.57,489.00 708.71,489.00 C709.80,489.00 709.50,489.61 707.73,491.00 C706.28,492.14 703.67,493.00 701.66,493.00 C699.05,493.00 697.61,493.68 696.07,495.63 C693.12,499.39 693.45,502.69 697.13,506.12 L 700.26 509.04 L 698.01 510.99 C696.43,512.36 695.90,513.69 696.23,515.44 C696.50,516.82 696.36,517.72 695.92,517.45 C695.49,517.19 694.86,517.42 694.51,517.98 C694.16,518.54 694.47,519.01 695.19,519.02 C696.10,519.03 696.16,519.26 695.38,519.77 C693.83,520.79 689.73,529.07 690.43,529.77 C690.75,530.08 690.27,531.15 689.38,532.14 C688.46,533.15 687.98,534.82 688.28,535.97 C688.57,537.09 688.44,537.77 687.98,537.49 C687.52,537.20 686.86,537.42 686.51,537.98 C686.16,538.54 686.36,539.00 686.94,539.00 C687.52,539.00 687.08,539.92 685.96,541.04 C684.84,542.16 684.20,543.51 684.52,544.04 C684.85,544.57 684.61,545.00 684.00,545.00 C683.39,545.00 683.17,545.46 683.52,546.03 C683.87,546.60 683.22,548.65 682.08,550.59 C680.93,552.53 680.45,553.84 681.00,553.50 C682.56,552.54 682.19,553.48 680.02,555.98 C678.93,557.23 678.28,558.65 678.58,559.13 C678.88,559.61 678.64,560.00 678.06,560.00 C677.48,560.00 677.00,561.15 677.00,562.56 C677.00,563.97 676.57,564.85 676.04,564.53 C674.99,563.88 677.71,573.89 679.03,575.51 C679.48,576.07 680.08,578.55 680.35,581.01 C680.62,583.48 680.92,585.50 681.00,585.50 C681.08,585.50 681.32,586.38 681.52,587.46 C681.72,588.54 682.54,591.01 683.35,592.96 C684.16,594.91 685.85,599.20 687.12,602.50 C688.39,605.80 692.25,613.88 695.71,620.47 C699.17,627.05 702.00,632.79 702.00,633.22 ZM 286.22 461.41 C282.83,462.83 279.90,464.00 279.71,464.00 C278.57,464.00 273.62,454.74 271.37,448.41 C267.62,437.83 268.23,428.80 273.39,418.71 C275.42,414.74 278.68,409.77 280.64,407.65 C283.86,404.18 285.11,403.61 293.35,401.91 C302.46,400.04 312.44,399.36 310.46,400.77 C309.88,401.17 309.44,403.30 309.47,405.50 C309.51,407.70 309.15,411.75 308.69,414.50 C308.23,417.25 307.66,420.62 307.43,422.00 C306.53,427.31 305.81,433.65 305.69,437.18 C305.63,439.20 305.25,440.65 304.85,440.41 C304.45,440.16 304.15,440.75 304.18,441.73 C304.21,442.70 303.89,446.09 303.48,449.25 C302.80,454.40 302.91,455.00 304.53,455.00 C307.86,455.00 305.25,456.12 298.79,457.48 C295.26,458.21 289.60,459.98 286.22,461.41 ZM 318.00 401.07 C318.00,402.43 316.69,402.14 315.21,400.46 C314.10,399.20 314.58,399.02 318.71,399.15 C321.64,399.24 322.43,399.46 320.75,399.72 C319.24,399.95 318.00,400.55 318.00,401.07 Z" fill="rgba(45,106,166,1)"/>
<path d="M 702.00 633.22 C702.00,632.79 699.17,627.05 695.71,620.47 C692.25,613.88 688.39,605.80 687.12,602.50 C685.85,599.20 684.16,594.91 683.35,592.96 C682.54,591.01 681.72,588.54 681.52,587.46 C681.32,586.38 681.08,585.50 681.00,585.50 C680.92,585.50 680.62,583.48 680.35,581.01 C680.08,578.55 679.48,576.07 679.03,575.51 C677.71,573.89 674.99,563.88 676.04,564.53 C676.57,564.85 677.00,563.97 677.00,562.56 C677.00,561.15 677.48,560.00 678.06,560.00 C678.64,560.00 678.88,559.61 678.58,559.13 C678.28,558.65 678.93,557.23 680.02,555.98 C682.19,553.48 682.56,552.54 681.00,553.50 C680.45,553.84 680.93,552.53 682.08,550.59 C683.22,548.65 683.87,546.60 683.52,546.03 C683.17,545.46 683.39,545.00 684.00,545.00 C684.61,545.00 684.85,544.57 684.52,544.04 C684.20,543.51 684.84,542.16 685.96,541.04 C687.08,539.92 687.52,539.00 686.94,539.00 C686.36,539.00 686.16,538.54 686.51,537.98 C686.86,537.42 687.52,537.20 687.98,537.49 C688.44,537.77 688.57,537.09 688.28,535.97 C687.98,534.82 688.46,533.15 689.38,532.14 C690.27,531.15 690.75,530.08 690.43,529.77 C689.73,529.07 693.83,520.79 695.38,519.77 C696.16,519.26 696.10,519.03 695.19,519.02 C694.47,519.01 694.16,518.54 694.51,517.98 C694.86,517.42 695.49,517.19 695.92,517.45 C696.36,517.72 696.50,516.82 696.23,515.44 C695.90,513.69 696.43,512.36 698.01,510.99 L 700.26 509.04 L 697.50 506.46 C703.08,510.76 709.85,506.47 709.02,498.50 C708.68,495.26 705.89,493.24 702.82,492.92 C704.59,492.67 706.54,491.93 707.73,491.00 C709.50,489.61 709.80,489.00 708.71,489.00 C706.57,489.00 703.00,484.25 703.00,481.41 C703.00,480.80 703.10,480.01 703.26,479.22 C702.48,483.99 705.40,488.00 710.19,488.00 C714.20,488.00 716.29,485.41 719.54,476.41 C721.11,472.06 725.16,461.08 728.55,452.00 L 734.71 435.50 L 741.48 435.20 C747.65,434.93 748.19,435.06 747.55,436.70 C747.16,437.69 742.33,450.73 736.80,465.68 C729.49,485.47 726.92,493.56 727.39,495.42 C728.69,500.60 735.46,502.40 739.28,498.58 C740.06,497.80 742.19,492.96 744.01,487.83 C745.83,482.70 747.65,478.05 748.06,477.50 C748.46,476.95 749.25,474.92 749.82,473.00 C750.38,471.08 751.79,467.02 752.95,464.00 C754.11,460.98 756.21,455.22 757.61,451.21 C759.01,447.20 761.04,441.91 762.12,439.46 L 764.09 435.00 L 770.55 435.00 C774.10,435.00 777.00,435.23 777.00,435.52 C777.00,436.04 730.73,559.22 722.72,580.00 C720.29,586.33 716.60,596.00 714.53,601.50 C712.46,607.00 710.14,612.92 709.38,614.65 C708.62,616.38 708.00,618.50 708.00,619.34 C708.00,620.19 707.63,621.11 707.18,621.39 C706.74,621.66 705.50,624.61 704.44,627.94 L 702.50 634.00 L 628.45 634.00 L 607.07 581.75 C595.31,553.01 585.17,528.47 584.54,527.20 C583.76,525.64 582.14,528.75 573.41,551.58 C580.64,532.23 586.00,517.61 586.53,515.69 C587.25,513.05 588.39,510.24 589.05,509.44 C589.71,508.65 589.91,508.00 589.50,508.00 C589.09,508.00 589.28,507.37 589.91,506.61 C590.55,505.84 590.98,504.83 590.88,504.36 C590.77,503.88 590.98,502.71 591.34,501.75 C592.26,499.32 592.75,497.59 592.70,497.00 C592.68,496.73 593.29,495.38 594.06,494.00 C595.66,491.15 596.15,487.79 594.86,488.59 C594.39,488.88 594.00,488.58 594.00,487.92 C594.00,487.27 593.10,487.87 592.00,489.27 C590.90,490.67 590.00,492.33 590.00,492.97 C590.00,493.60 589.60,493.87 589.10,493.56 C588.61,493.26 587.94,493.71 587.62,494.56 C587.22,495.59 587.43,495.87 588.26,495.40 C588.94,495.02 588.60,495.65 587.50,496.80 C584.05,500.42 582.89,502.00 583.68,502.00 C584.10,502.00 583.33,502.76 581.97,503.68 C580.61,504.61 578.83,506.23 578.00,507.28 C577.17,508.33 575.47,510.27 574.20,511.59 C572.94,512.92 572.17,514.00 572.49,514.00 C573.12,514.00 571.84,515.67 568.25,519.50 C567.01,520.83 566.00,522.28 566.00,522.73 C566.00,524.00 561.63,527.51 560.50,527.15 C559.95,526.98 559.81,527.14 560.18,527.51 C560.55,527.89 558.85,530.20 556.40,532.65 C553.95,535.10 552.22,537.54 552.55,538.08 C552.88,538.61 552.71,538.93 552.18,538.77 C551.20,538.50 549.70,540.00 544.00,547.00 C542.25,549.15 540.00,551.85 539.00,553.00 C538.00,554.15 535.75,556.85 534.00,559.00 C530.70,563.05 529.83,564.14 524.00,571.47 C522.08,573.90 520.19,575.91 519.80,575.94 C519.14,576.00 518.41,574.82 514.37,567.25 C513.41,565.46 512.01,564.00 511.26,564.00 C510.50,564.00 510.16,563.55 510.50,563.00 C510.84,562.45 510.61,562.00 510.00,562.00 C509.39,562.00 509.14,561.59 509.45,561.08 C509.76,560.57 509.34,559.48 508.50,558.64 C507.67,557.81 506.09,555.18 505.00,552.81 C503.92,550.44 502.59,547.83 502.07,547.00 C501.54,546.17 496.20,535.38 490.19,523.00 C488.19,518.89 486.53,515.49 485.10,512.65 C486.79,515.91 488.65,519.63 490.75,523.91 C498.86,540.43 502.48,546.89 503.07,545.84 C504.05,544.09 532.65,465.49 534.64,459.08 C536.65,452.58 542.85,439.84 545.26,437.25 L 547.35 435.00 L 617.86 435.00 L 619.81 437.75 C623.35,442.77 627.92,452.73 635.37,471.72 C639.92,483.30 643.82,493.21 647.14,501.64 C640.14,484.01 634.16,469.78 633.44,469.04 C632.45,468.03 631.69,467.91 630.97,468.63 C629.81,469.79 630.69,473.00 632.17,473.00 C632.69,473.00 632.91,473.34 632.64,473.77 C632.38,474.19 632.71,476.77 633.37,479.52 C634.15,482.76 634.56,493.68 634.53,510.75 C634.52,525.19 634.86,537.00 635.31,537.00 C635.75,537.00 635.76,537.56 635.32,538.25 C634.05,540.22 634.16,628.36 635.43,629.23 C636.06,629.67 635.67,630.02 634.50,630.08 C632.83,630.18 632.92,630.33 635.00,631.00 C637.49,631.80 637.49,631.80 634.50,632.11 C629.91,632.58 656.95,633.56 680.75,633.79 C692.44,633.91 702.00,633.65 702.00,633.22 ZM 286.22 461.41 C286.30,461.37 286.39,461.34 286.48,461.30 C284.78,462.02 283.40,462.76 282.44,463.50 C280.58,464.93 280.78,465.27 287.14,471.39 C297.12,480.99 311.33,488.55 337.50,498.20 C341.98,499.85 346.20,501.56 350.18,503.34 C339.71,498.79 325.84,493.85 324.42,494.39 C323.71,494.66 322.91,494.35 322.64,493.69 C322.37,493.03 322.12,493.24 322.08,494.19 C322.04,495.12 322.41,496.14 322.92,496.45 C323.42,496.76 323.85,499.77 323.87,503.12 C323.88,506.48 324.13,509.46 324.41,509.75 C324.70,510.03 324.45,511.16 323.87,512.25 C323.10,513.69 323.11,514.05 323.90,513.56 C324.51,513.19 325.00,513.36 325.00,513.94 C325.00,514.52 324.49,515.00 323.88,515.00 C323.07,515.00 323.08,515.40 323.93,516.41 C324.73,517.38 324.77,518.03 324.05,518.47 C323.47,518.83 323.00,519.57 323.00,520.12 C323.00,520.67 323.56,520.78 324.25,520.37 C325.20,519.80 325.19,520.00 324.21,521.21 C323.15,522.51 323.15,522.88 324.21,523.24 C325.26,523.59 325.26,523.96 324.20,525.25 C323.28,526.36 323.23,527.02 324.00,527.50 C324.80,527.99 324.80,528.54 324.00,529.50 C323.20,530.46 323.20,531.01 324.00,531.50 C324.80,531.99 324.80,532.54 324.00,533.50 C323.20,534.46 323.20,535.01 324.00,535.50 C324.80,535.99 324.80,536.54 324.00,537.50 C323.20,538.46 323.20,539.01 324.00,539.50 C324.80,539.99 324.80,540.54 324.00,541.50 C323.23,542.43 323.22,543.02 323.97,543.48 C324.55,543.84 324.71,544.66 324.32,545.30 C323.92,545.93 323.60,547.38 323.60,548.50 C323.60,549.62 323.92,551.07 324.32,551.70 C324.71,552.34 324.53,553.17 323.91,553.56 C323.11,554.05 323.15,554.48 324.08,555.05 C325.07,555.66 325.10,556.18 324.21,557.25 C323.40,558.22 323.36,558.96 324.10,559.70 C324.83,560.43 324.37,560.94 322.57,561.39 C319.01,562.29 319.33,563.29 324.25,566.54 C326.59,568.09 331.15,571.86 334.38,574.92 C337.40,577.79 340.92,581.98 343.68,585.73 C340.67,581.72 336.67,577.11 333.12,573.81 C327.93,569.01 323.24,565.89 315.76,562.24 C302.07,555.57 299.54,554.52 292.50,552.52 C289.20,551.58 286.05,550.46 285.50,550.04 C284.95,549.61 282.70,548.68 280.50,547.97 C278.30,547.26 272.90,544.89 268.50,542.71 C245.41,531.24 231.47,517.44 224.77,499.43 C222.85,494.27 222.56,491.48 222.54,478.00 C222.51,461.23 222.58,460.73 226.31,450.88 C237.78,420.57 271.67,401.08 315.47,399.18 C314.44,399.31 314.52,399.68 315.21,400.46 C316.69,402.14 318.00,402.43 318.00,401.07 C318.00,400.55 319.24,399.95 320.75,399.72 C322.43,399.46 321.64,399.24 318.71,399.15 C318.11,399.13 317.58,399.12 317.13,399.12 C318.84,399.06 320.57,399.03 322.31,399.03 C338.02,399.00 346.55,399.94 359.50,403.13 C368.79,405.42 386.44,413.67 389.84,417.32 L 392.18 419.83 L 387.43 429.03 C381.66,440.19 374.99,449.27 369.75,453.07 C363.38,457.68 356.95,458.47 341.10,456.59 C333.62,455.71 324.58,454.99 321.00,455.00 C311.02,455.02 298.25,457.23 289.84,460.04 C292.87,459.00 296.34,457.99 298.79,457.48 C305.25,456.12 307.86,455.00 304.53,455.00 C302.91,455.00 302.80,454.40 303.48,449.25 C303.89,446.09 304.21,442.70 304.18,441.73 C304.15,440.75 304.45,440.16 304.85,440.41 C305.25,440.65 305.63,439.20 305.69,437.18 C305.81,433.65 306.53,427.31 307.43,422.00 C307.66,420.62 308.23,417.25 308.69,414.50 C309.15,411.75 309.51,407.70 309.47,405.50 C309.44,403.30 309.88,401.17 310.46,400.77 C312.44,399.36 302.46,400.04 293.35,401.91 C285.11,403.61 283.86,404.18 280.64,407.65 C278.68,409.77 275.42,414.74 273.39,418.71 C268.23,428.80 267.62,437.83 271.37,448.41 C273.62,454.74 278.57,464.00 279.71,464.00 C279.90,464.00 282.83,462.83 286.22,461.41 ZM 544.00 634.00 L 506.03 634.00 C473.91,634.00 468.15,633.78 468.60,632.60 C468.89,631.83 467.96,628.89 466.53,626.06 C465.10,623.24 464.20,620.49 464.52,619.96 C464.85,619.43 464.61,619.00 464.00,619.00 C463.39,619.00 463.14,618.59 463.45,618.09 C463.76,617.58 463.58,617.02 463.04,616.84 C462.51,616.65 453.70,599.17 443.47,578.00 C416.85,522.91 406.69,502.12 399.82,488.69 C396.50,482.19 393.95,476.72 394.14,476.53 C394.72,475.97 412.14,474.19 423.00,473.57 C436.40,472.81 450.29,476.72 462.08,484.55 C468.60,488.88 472.69,492.39 477.11,498.82 C476.04,497.46 474.94,496.31 473.63,495.03 C469.05,490.58 468.00,489.95 468.00,491.63 C468.00,494.01 471.26,497.37 472.49,496.25 C472.95,495.84 473.05,496.25 472.72,497.18 C472.39,498.10 472.77,499.39 473.56,500.05 C474.35,500.71 475.02,500.85 475.04,500.37 C475.07,499.89 475.79,501.30 476.64,503.50 C477.98,506.95 478.22,515.99 478.36,568.75 C478.53,629.50 478.51,630.00 476.51,630.13 C475.40,630.20 476.07,630.62 478.00,631.05 C480.97,631.72 480.63,631.82 475.75,631.67 C472.59,631.58 470.00,631.83 470.00,632.22 C470.00,632.99 484.21,633.42 521.25,633.78 L 544.00 634.00 ZM 289.10 654.75 C284.18,654.75 280.15,654.63 278.00,654.37 C268.58,653.22 252.04,649.63 243.88,646.96 C230.60,642.62 217.82,636.18 218.42,634.13 C218.92,632.42 222.06,620.22 222.44,618.50 C225.99,602.56 234.10,594.10 248.89,590.93 C254.14,589.80 256.82,590.16 271.98,593.95 C276.64,595.12 283.05,596.35 286.23,596.68 C289.40,597.01 292.00,597.56 292.00,597.89 C292.00,598.23 300.21,598.38 310.25,598.24 C322.80,598.07 336.65,596.88 343.70,595.55 C336.76,596.95 323.27,598.44 311.50,598.95 C302.15,599.35 295.85,599.79 297.50,599.91 C300.12,600.11 300.25,600.25 298.50,601.00 C297.40,601.47 297.07,601.89 297.76,601.93 C298.62,601.98 298.74,602.56 298.15,603.75 C297.12,605.82 294.00,615.41 293.49,618.04 C293.30,619.06 291.50,624.96 289.49,631.16 C287.49,637.35 285.70,643.56 285.51,644.96 C284.90,649.51 283.85,651.00 281.14,651.13 C278.88,651.24 279.01,651.37 282.00,652.00 L 285.50 652.74 L 281.50 652.94 C278.20,653.11 277.85,653.30 279.50,654.06 C280.40,654.48 284.08,654.69 289.10,654.75 ZM 375.38 517.93 C387.30,527.08 395.18,537.79 399.70,550.61 C395.20,537.83 387.23,527.08 375.38,517.93 ZM 694.14 501.21 C693.89,499.42 694.53,497.59 696.07,495.63 C697.23,494.17 698.33,493.42 699.91,493.14 C698.46,493.52 697.09,494.34 696.07,495.63 C694.58,497.54 693.93,499.41 694.14,501.21 Z" fill="rgba(70,152,190,1)"/>
<path d="M 472.50 877.40 C430.49,873.21 403.32,867.07 370.78,854.43 C294.97,824.98 232.86,771.51 191.96,700.50 C171.48,664.95 155.41,618.86 149.62,579.00 C144.33,542.63 145.05,498.26 151.48,463.88 C176.83,328.47 279.17,219.59 412.15,186.56 C442.67,178.98 463.56,176.53 497.50,176.53 C531.38,176.53 552.34,178.99 582.68,186.52 C693.51,214.05 783.77,293.71 825.44,400.78 C850.64,465.54 855.99,537.55 840.53,604.00 C818.42,698.97 761.25,778.00 678.50,827.96 C637.36,852.79 592.04,868.47 541.00,875.53 C530.04,877.04 482.06,878.35 472.50,877.40 ZM 330.50 652.59 C366.31,644.47 390.06,625.90 399.68,598.50 C402.30,591.02 402.48,589.47 402.48,574.50 C402.48,559.56 402.30,557.98 399.70,550.62 C391.47,527.27 372.12,510.96 337.50,498.20 C311.33,488.55 297.12,480.99 287.14,471.39 C280.78,465.27 280.58,464.93 282.44,463.50 C287.92,459.27 307.15,455.03 321.00,455.00 C324.58,454.99 333.62,455.71 341.10,456.59 C356.95,458.47 363.38,457.68 369.75,453.07 C374.99,449.27 381.66,440.19 387.43,429.03 L 392.18 419.83 L 389.84 417.32 C386.44,413.67 368.79,405.42 359.50,403.13 C346.55,399.94 338.02,399.00 322.31,399.03 C275.22,399.11 238.37,419.01 226.31,450.88 C222.58,460.73 222.51,461.23 222.54,478.00 C222.56,491.48 222.85,494.27 224.77,499.43 C231.47,517.44 245.41,531.24 268.50,542.71 C272.90,544.89 278.30,547.26 280.50,547.97 C282.70,548.68 284.95,549.61 285.50,550.04 C286.05,550.46 289.20,551.58 292.50,552.52 C299.54,554.52 302.07,555.57 315.76,562.24 C323.24,565.89 327.93,569.01 333.12,573.81 C340.40,580.56 349.55,592.86 348.23,594.16 C346.44,595.93 327.16,598.01 310.25,598.24 C300.21,598.38 292.00,598.23 292.00,597.89 C292.00,597.56 289.40,597.01 286.23,596.68 C283.05,596.35 276.64,595.12 271.98,593.95 C256.82,590.16 254.14,589.80 248.89,590.93 C234.10,594.10 225.99,602.56 222.44,618.50 C222.06,620.22 218.92,632.42 218.42,634.13 C217.82,636.18 230.60,642.62 243.88,646.96 C252.04,649.63 268.58,653.22 278.00,654.37 C286.45,655.40 323.67,654.14 330.50,652.59 ZM 544.00 631.78 C544.00,630.56 552.86,606.02 563.70,577.24 C581.11,530.99 583.53,525.18 584.54,527.20 C585.17,528.47 595.31,553.01 607.07,581.75 L 628.45 634.00 L 665.47 634.00 L 702.50 634.00 L 704.44 627.94 C705.50,624.61 706.74,621.66 707.18,621.39 C707.63,621.11 708.00,620.19 708.00,619.34 C708.00,618.50 708.62,616.38 709.38,614.65 C710.14,612.92 712.46,607.00 714.53,601.50 C716.60,596.00 720.29,586.33 722.72,580.00 C730.73,559.22 777.00,436.04 777.00,435.52 C777.00,435.23 774.10,435.00 770.55,435.00 L 764.09 435.00 L 762.12 439.46 C761.04,441.91 759.01,447.20 757.61,451.21 C756.21,455.22 754.11,460.98 752.95,464.00 C751.79,467.02 750.38,471.08 749.82,473.00 C749.25,474.92 748.46,476.95 748.06,477.50 C747.65,478.05 745.83,482.70 744.01,487.83 C742.19,492.96 740.06,497.80 739.28,498.58 C735.46,502.40 728.69,500.60 727.39,495.42 C726.92,493.56 729.49,485.47 736.80,465.68 C742.33,450.73 747.16,437.69 747.55,436.70 C748.19,435.06 747.65,434.93 741.48,435.20 L 734.71 435.50 L 728.55 452.00 C725.16,461.08 721.11,472.06 719.54,476.41 C716.29,485.41 714.20,488.00 710.19,488.00 C704.61,488.00 701.57,482.55 703.95,476.80 C704.47,475.53 706.71,469.55 708.91,463.50 C711.11,457.45 714.28,448.90 715.96,444.50 C717.63,440.10 718.99,436.37 719.00,436.20 C719.00,436.04 715.96,436.04 712.25,436.20 L 705.50 436.50 L 701.83 443.50 C698.61,449.65 690.39,471.72 670.25,528.27 C667.16,536.94 664.33,543.69 663.95,543.27 C663.32,542.57 656.04,524.33 635.37,471.72 C627.92,452.73 623.35,442.77 619.81,437.75 L 617.86 435.00 L 582.61 435.00 L 547.35 435.00 L 545.26 437.25 C542.85,439.84 536.65,452.58 534.64,459.08 C532.65,465.49 504.05,544.09 503.07,545.84 C502.48,546.89 498.86,540.43 490.75,523.91 C477.93,497.77 474.14,492.57 462.08,484.55 C450.29,476.72 436.40,472.81 423.00,473.57 C412.14,474.19 394.72,475.97 394.14,476.53 C393.95,476.72 396.50,482.19 399.82,488.69 C406.69,502.12 416.85,522.91 443.47,578.00 C453.70,599.17 462.51,616.65 463.04,616.84 C463.58,617.02 463.76,617.58 463.45,618.09 C463.14,618.59 463.39,619.00 464.00,619.00 C464.61,619.00 464.85,619.43 464.52,619.96 C464.20,620.49 465.10,623.24 466.53,626.06 C467.96,628.89 468.89,631.83 468.60,632.60 C468.15,633.78 473.91,634.00 506.03,634.00 L 544.00 634.00 L 544.00 631.78 ZM 696.45 505.55 C693.45,502.55 693.32,499.13 696.07,495.63 C699.88,490.79 708.42,492.68 709.02,498.50 C709.90,506.97 702.20,511.29 696.45,505.55 Z" fill="rgba(254,254,254,1)"/>
</g>
</svg>